<!-- icon666.com - MILLIONS OF FREE VECTOR ICONS --><svg id="Capa_1" enable-background="new 0 0 512.01 512.01" viewBox="0 0 512.01 512.01" xmlns="http://www.w3.org/2000/svg"><g><path d="m392.009 45c0 14.643 7.032 27.671 17.894 35.894l-40.471 40.471c-105.638-94.703-267.182-90.442-369.432 11.808l178.812 178.812-27.015 27.015h-87.076l-51.121 84h75.41v75.41l84-51.121v-87.077l27.015-27.015 178.812 178.812c102.497-102.497 106.251-264.072 11.807-369.431l40.461-40.461c8.539 11.26 21.602 17.884 35.904 17.882 24.87 0 45-20.124 44.999-44.999l.002-75h-75.001c-24.811 0-44.998 20.186-45 45zm-248.999 385.417-24.098 14.649v-51.968h-51.968l14.649-24.098h61.417zm57.015-139.645-156.317-156.318c89.086-69.762 216.951-69.2 304.472 8.163zm177.501 177.5-156.288-156.287 148.146-148.145c75.715 85.913 78.317 214.364 8.142 304.432zm104.484-393.271c.001 8.288-6.706 14.999-15.001 14.999-8.29 0-14.999-6.707-14.999-15v-15h-15c-8.271 0-15.001-6.729-15.001-15s6.729-15 15-15h45.002z"></path></g></svg>