<!-- icon666.com - MILLIONS OF FREE VECTOR ICONS --><svg id="Capa_1" enable-background="new 0 0 512.131 512.131" viewBox="0 0 512.131 512.131" xmlns="http://www.w3.org/2000/svg"><g><path d="m459.465 231.311-90.371-187.421c-7.961-16.444-22.835-29.432-40.072-35.013-1.283-.415-25.776-8.492-26.99-8.665-1.935-.275-90.386-.302-92.333.032-.967.166-25.779 8.307-26.781 8.633-17.147 5.58-32.209 18.756-40.073 35.014l-90.179 187.024c-1.774 3.671-2.213 7.857-1.237 11.775 1.895 7.656 7.313 21.652 22.316 29.376 10.037 5.169 19.832 5.117 26.293 4.16 5.6-.837 10.477-4.333 13.049-9.354 12.183-23.832 57.318-112.096 67.695-132.394l9.735 58.4c-8.085 4.474-13.573 13.09-13.573 22.966 0 9.136 4.698 17.193 11.802 21.891-30.181 78.168-60.363 156.336-90.532 234.507-1.126 2.91-1.013 6.199.31 9.024 1.323 2.826 3.777 5.019 6.729 6.017 51.247 17.314 104.505 25.669 158.408 24.785 48.683-.798 96.802-9.138 143.018-24.784 2.957-.999 5.411-3.192 6.733-6.018 1.323-2.825 1.436-6.114.312-9.019l-90.534-234.512c7.104-4.698 11.802-12.755 11.802-21.891 0-9.876-5.488-18.491-13.573-22.966l9.735-58.401 70.426 137.733c3.345 6.557 10.514 10.274 17.708 9.405 7.957-.961 19.447-4.184 28.996-14.076 8.58-8.886 11.657-19.072 12.729-26.06.526-3.449-.008-6.961-1.548-10.168zm-166.75-216.182c-3.484 17.096-18.635 30-36.745 30s-33.261-12.904-36.745-30zm70.534 368.016c-15.414 4.53-31.198 8.11-47.035 10.65-4.09.656-6.874 4.503-6.218 8.593.591 3.688 3.777 6.313 7.396 6.313.395 0 .795-.031 1.197-.096 16.869-2.705 33.683-6.541 50.082-11.416l29.742 77.041c-43.686 14.403-89.083 22.085-134.997 22.838-50.974.84-101.389-6.846-149.891-22.838 9.912-25.683 19.829-51.361 29.742-77.042 36.665 10.916 74.359 16.416 112.46 16.416 9.109 0 18.243-.314 27.39-.943 4.132-.284 7.252-3.865 6.968-7.997s-3.873-7.244-7.997-6.968c-45.212 3.111-90.046-1.792-133.398-14.552 4.458-11.547 8.915-23.094 13.373-34.64 30.795 8.766 62.35 13.154 93.907 13.154 31.556 0 63.112-4.388 93.906-13.154zm-18.802-48.702c-58.059 16.269-118.897 16.269-176.956 0 11.887-30.788 23.771-61.579 35.659-92.368.009 0 .017.001.026.001h105.587c.009 0 .017-.001.026-.001zm-152.503-118.599c0-6.193 5.039-11.231 11.231-11.231h105.587c6.193 0 11.231 5.039 11.231 11.231 0 6.193-5.039 11.232-11.231 11.232h-105.586c-6.193 0-11.232-5.039-11.232-11.232zm245.549 41.276c-6.49 6.724-14.46 8.933-20.014 9.604-1.042.129-2.066-.409-2.542-1.34l-75.255-147.18c-2.268-4.419-7.09-6.878-11.996-6.117-4.909.761-8.76 4.566-9.585 9.479l-11.342 68.047h-101.579l-11.344-68.057c-.824-4.903-4.675-8.708-9.583-9.469-4.907-.761-9.728 1.697-12.001 6.127-11.986 23.448-60.336 117.998-72.518 141.826-.37.722-1.085 1.227-1.902 1.349-4.273.633-10.728.684-17.219-2.659-9.733-5.011-13.339-14.458-14.625-19.654-.133-.533-.067-1.114.188-1.641l90.179-187.028c2.358-4.887 5.458-9.346 9.136-13.245 5.541 13.446 14.032 25.542 24.964 35.419 3.065 2.769 7.809 2.544 10.593-.537 2.777-3.073 2.537-7.816-.537-10.593-10.338-9.34-18.105-21.011-22.686-33.999 3.076-1.755 6.337-3.206 9.738-4.314l16.877-5.497c4.689 24.174 26.007 42.485 51.531 42.485s46.839-18.309 51.529-42.483l16.877 5.497c3.397 1.106 6.654 2.556 9.727 4.308-11.59 32.859-42.957 55.371-78.134 55.371-9.719 0-19.237-1.674-28.29-4.975-3.89-1.419-8.196.585-9.616 4.476-1.419 3.892.585 8.197 4.476 9.616 10.704 3.904 21.952 5.883 33.429 5.883 39.837 0 75.542-24.438 90.48-60.656 3.678 3.898 6.777 8.356 9.134 13.242l90.366 187.41c.22.458.304.956.237 1.396-.741 4.83-2.851 11.858-8.693 17.909z"></path></g></svg>