<!-- icon666.com - MILLIONS vector ICONS FREE --><svg version="1.1" id="Capa_1" xmlns="http://www.w3.org/2000/svg" xmlns:xlink="http://www.w3.org/1999/xlink" x="0px" y="0px" viewBox="0 0 512.009 512.009" style="enable-background:new 0 0 512.009 512.009;" xml:space="preserve"><g><g><path d="M330.245,191.956c-11.91-32.499-39.111-51.908-72.764-51.908c-23.198,0-42.954,8.768-57.135,25.355 c-20.465,23.935-23.855,57.038-20.527,78.151c8.671,54.304,45.696,84.31,72.79,102.148c2.769,1.837,5.902,2.707,8.99,2.707 c5.334,0,10.552-2.591,13.711-7.375c4.979-7.561,2.884-17.714-4.677-22.701c-21.921-14.421-51.819-38.41-58.449-79.908 c-2.334-14.821,0.763-37.336,13.072-51.731c7.987-9.336,18.522-13.88,32.224-13.88c26.846,0,37.833,19.054,41.995,30.414 c10.057,27.413,1.759,61.528-19.283,79.348c-6.913,5.848-7.765,16.196-1.917,23.092c5.857,6.913,16.196,7.765,23.092,1.917 C332.881,280.898,345.031,232.273,330.245,191.956z"></path></g></g><g><g><path d="M381.648,479.23H147.693c0.612-52.654,4.145-74.512,7.144-83.529c4.473-13.383,22.844-27.157,38.924-36.156 c14.537,22.897,37.629,36.555,63.277,36.546h0.009c25.346-0.009,48.216-13.632,62.691-36.493 c14.705,8.227,34.159,21.814,38.924,36.094c5.653,16.96,5.458,28.222,5.192,43.823c-0.053,3.541-0.124,7.233-0.124,11.129 c0,9.052,7.331,16.392,16.383,16.392s16.392-7.339,16.392-16.392c0-3.71,0.062-7.206,0.115-10.57 c0.302-16.693,0.559-32.464-6.86-54.739c-12.371-37.07-64.874-60.188-70.82-62.7c-4.056-1.704-8.635-1.731-12.691-0.027 c-4.056,1.704-7.259,4.961-8.901,9.043c-7.934,19.835-22.994,31.674-40.3,31.674c-0.009,0-0.009,0-0.009,0 c-17.394,0-33.058-12.132-40.877-31.683c-1.633-4.082-4.837-7.348-8.901-9.034c-4.065-1.695-8.635-1.677-12.682,0.035 c-5.946,2.503-58.431,25.604-70.82,62.691c-7.606,22.817-8.813,69.578-8.91,104.935c-0.577,1.677-0.896,3.47-0.896,5.343 c0,9.052,7.331,16.392,16.383,16.392H381.65c9.043,0,16.392-7.34,16.392-16.392C398.04,486.561,390.7,479.23,381.648,479.23z"></path></g></g><g><g><path d="M159.247,238.466c-11.369-17.075-29.287-27.263-47.932-27.263c-35.117,0-63.685,35.57-63.685,79.287 c0,43.735,28.568,79.322,63.685,79.322c9.053,0.002,16.383-7.338,16.383-16.39s-7.331-16.392-16.383-16.392 c-16.764,0-30.919-21.308-30.919-46.548c0-25.213,14.155-46.512,30.919-46.512c7.659,0,15.38,4.73,20.66,12.655 c8.2,12.327,8.901,28.994,1.899,45.749c-3.488,8.342,0.453,17.936,8.804,21.432c8.351,3.488,17.945-0.461,21.432-8.804 C175.407,287.97,173.633,260.068,159.247,238.466z"></path></g></g><g><g><path d="M81.097,463.628H33.866c0.861-10.801,2.263-24.911,4.393-36.892c4.144-23.207,23.269-34.319,23.962-34.718 c4.792-2.618,7.969-7.446,8.466-12.877c0.497-5.449-1.739-10.765-5.973-14.217c-21.202-17.244-31.949-44.684-31.949-81.55 c0-25.683,6.053-41.196,6.07-41.25c3.461-8.36-0.524-17.945-8.884-21.397c-8.351-3.443-17.936,0.524-21.397,8.884 C7.685,231.732,0,251.248,0,283.374c0,38.747,9.984,69.942,29.721,93.034c-9.452,9.434-20.057,24.113-23.713,44.595 c-4.464,25.071-5.928,56.949-5.99,58.28c-0.195,4.473,1.438,8.83,4.526,12.061c3.088,3.23,7.366,5.059,11.839,5.059h64.723 c9.052,0,16.374-7.331,16.374-16.383S90.149,463.628,81.097,463.628z"></path></g></g><g><g><path d="M400.676,211.214c-18.646,0-36.564,10.188-47.932,27.263c-14.386,21.61-16.161,49.503-4.872,76.536 c3.488,8.342,13.081,12.292,21.432,8.804c8.351-3.497,12.292-13.09,8.804-21.432c-7.002-16.738-6.301-33.413,1.908-45.74 c5.28-7.934,13.001-12.664,20.66-12.664c16.747,0,30.902,21.299,30.902,46.512c0,25.24-14.146,46.548-30.902,46.548 c-9.052,0-16.392,7.339-16.392,16.392c0,9.052,7.339,16.383,16.392,16.383c35.108-0.001,63.676-35.589,63.676-79.315 C464.352,246.784,435.784,211.214,400.676,211.214z"></path></g></g><g><g><path d="M482.27,376.391c19.746-23.074,29.739-54.269,29.739-93.016c0-32.126-7.685-51.642-8.555-53.763 c-3.435-8.316-12.93-12.256-21.282-8.875c-8.342,3.381-12.38,12.922-9.052,21.29c0.062,0.151,6.115,15.664,6.115,41.347 c0,36.866-10.756,64.306-31.958,81.55c-4.242,3.452-6.487,8.777-5.982,14.217c0.506,5.431,3.674,10.259,8.466,12.877 c0.195,0.106,19.799,11.386,23.962,34.718c2.13,11.972,3.532,26.092,4.402,36.892h-47.249c-9.052,0-16.383,7.339-16.383,16.392 c0,9.053,7.331,16.383,16.383,16.383h64.741c4.473,0,8.75-1.828,11.848-5.076c3.097-3.239,4.721-7.588,4.526-12.061 c-0.062-1.34-1.535-33.227-6.008-58.28C502.327,400.511,491.721,385.824,482.27,376.391z"></path></g></g><g><g><path d="M75.959,70.638c-8.253-8.253-23.074-8.253-31.328,0c-4.171,4.171-6.479,9.851-6.479,15.708s2.307,11.537,6.479,15.708 c4.082,4.172,9.851,6.479,15.708,6.479c5.769,0,11.537-2.299,15.62-6.479c4.171-4.171,6.567-9.851,6.567-15.708 C82.526,80.578,80.13,74.81,75.959,70.638z"></path></g></g><g><g><path d="M491.109,161.524c-8.262-8.253-23.163-8.253-31.417,0c-4.073,4.171-6.479,9.851-6.479,15.708s2.396,11.537,6.479,15.708 c4.172,4.083,9.851,6.479,15.709,6.479c5.866,0,11.546-2.396,15.708-6.479c4.073-4.171,6.47-9.851,6.47-15.708 S495.192,165.695,491.109,161.524z"></path></g></g><g><g><path d="M370.146,124.428c-8.253-8.342-23.074-8.342-31.425,0c-4.065,4.082-6.47,9.762-6.47,15.619s2.396,11.626,6.47,15.708 c4.18,4.172,9.958,6.479,15.717,6.479c5.866,0,11.626-2.307,15.708-6.479c4.162-4.082,6.47-9.851,6.47-15.708 C376.616,134.279,374.317,128.51,370.146,124.428z"></path></g></g><g><g><path d="M229.49,76.682c-8.253-8.254-23.074-8.254-31.328,0c-4.17,4.171-6.566,9.851-6.566,15.708 c0,5.769,2.396,11.537,6.567,15.62c4.082,4.171,9.851,6.567,15.708,6.567c5.769,0,11.537-2.396,15.619-6.567 c4.171-4.082,6.479-9.762,6.479-15.62C235.969,86.534,233.662,80.764,229.49,76.682z"></path></g></g><g><g><path d="M306.072,30.268h-13.853v-13.88c0-9.043-7.348-16.383-16.392-16.383s-16.383,7.339-16.383,16.383v13.88h-13.916 c-9.043,0-16.383,7.339-16.383,16.383c0,9.044,7.331,16.383,16.383,16.383h13.916v13.88c0,9.043,7.331,16.383,16.383,16.383 s16.392-7.339,16.392-16.392V63.034h13.853c9.052,0,16.392-7.339,16.392-16.383C322.464,37.607,315.125,30.268,306.072,30.268z"></path></g></g><g><g><path d="M163.011,108.728H149.14V94.866c0-9.043-7.339-16.383-16.383-16.383s-16.383,7.331-16.383,16.383v13.862h-13.907 c-9.043,0-16.383,7.339-16.383,16.383c0.001,9.044,7.331,16.383,16.383,16.383h13.907v13.889c0,9.043,7.331,16.383,16.383,16.383 s16.392-7.339,16.383-16.383v-13.889h13.871c9.043,0,16.383-7.339,16.383-16.383C179.394,116.068,172.063,108.728,163.011,108.728 z"></path></g></g><g><g><path d="M447.162,83.196c-6.842-5.937-17.173-5.201-23.11,1.633c-26.58,30.618-24.494,63.064-20.9,79.677 c1.668,7.677,8.448,12.922,15.992,12.922c1.154,0,2.316-0.124,3.488-0.399c8.848-1.917,14.457-10.632,12.54-19.48 c-2.813-12.975-2.742-32.402,13.623-51.243C454.723,99.472,453.996,89.125,447.162,83.196z"></path></g></g><g><g><path d="M73.403,149.811c-32.508-4.082-56.017,9.949-67.137,18.69c-7.118,5.591-8.351,15.895-2.76,23.003 c3.23,4.117,8.04,6.265,12.894,6.265c3.541,0,7.109-1.145,10.108-3.505c8.679-6.807,23.11-14.43,42.794-11.936 c8.901,1.092,17.181-5.227,18.309-14.208C88.738,159.139,82.384,150.939,73.403,149.811z"></path></g></g><g><g><path d="M378.675,41.379c-8.058-4.127-17.918-0.914-22.036,7.153c-5.014,9.833-14.963,22.826-33.804,28.843 c-8.617,2.75-13.383,11.962-10.623,20.589c2.219,6.967,8.671,11.404,15.602,11.404c1.642,0,3.328-0.257,4.988-0.772 c23.101-7.375,41.933-23.42,53.026-45.181C389.946,55.357,386.742,45.488,378.675,41.379z"></path></g></g><g><g><path d="M206.835,14.337c-5.893-6.851-16.25-7.641-23.11-1.722c-14.981,12.904-31.257,14.581-42.27,13.667 c-9.052-0.71-16.915,5.999-17.643,15.025c-0.72,9.017,6.007,16.916,15.024,17.643c2.494,0.204,4.988,0.302,7.464,0.302 c21.672,0,42.315-7.606,58.813-21.805C211.964,31.536,212.745,21.198,206.835,14.337z"></path></g></g></svg>