<!-- icon666.com - MILLIONS vector ICONS FREE --><svg xmlns="http://www.w3.org/2000/svg" viewBox="0 0 64 64"><g id="Camera"><path d="M55,55H9a5.0059,5.0059,0,0,1-5-5V20a5.0059,5.0059,0,0,1,5-5H25.2793l1.5439-4.6328A1.9988,1.9988,0,0,1,28.7207,9H43.2793a1.9974,1.9974,0,0,1,1.8975,1.3682L46.7207,15H55a5.0059,5.0059,0,0,1,5,5V50A5.0059,5.0059,0,0,1,55,55ZM9,17a3.0033,3.0033,0,0,0-3,3V50a3.0033,3.0033,0,0,0,3,3H55a3.0033,3.0033,0,0,0,3-3V20a3.0033,3.0033,0,0,0-3-3H46.7207a1.9974,1.9974,0,0,1-1.8975-1.3682L43.2793,11H28.7207l-1.5439,4.6328A1.9988,1.9988,0,0,1,25.2793,17Zm37.7207-2,.001.001"></path><path d="M36,51A16,16,0,1,1,52,35,16.0183,16.0183,0,0,1,36,51Zm0-30A14,14,0,1,0,50,35,14.0158,14.0158,0,0,0,36,21Z"></path><path d="M36,47A12,12,0,1,1,48,35,12.0134,12.0134,0,0,1,36,47Zm0-22A10,10,0,1,0,46,35,10.0114,10.0114,0,0,0,36,25Z"></path><path d="M43,36a1,1,0,0,1-1-1,6.0066,6.0066,0,0,0-6-6,1,1,0,0,1,0-2,8.0092,8.0092,0,0,1,8,8A1,1,0,0,1,43,36Z"></path><path d="M41,15H31a1,1,0,0,1,0-2H41a1,1,0,0,1,0,2Z"></path><path d="M19,25H9a1,1,0,0,1-1-1V20a1,1,0,0,1,1-1H19a1,1,0,0,1,1,1v4A1,1,0,0,1,19,25Zm-9-2h8V21H10Z"></path><path d="M19,17H11a1,1,0,0,1-1-1V12a1,1,0,0,1,1-1h8a1,1,0,0,1,1,1v4A1,1,0,0,1,19,17Zm-7-2h6V13H12Z"></path><path d="M53,25a3,3,0,1,1,3-3A3.0033,3.0033,0,0,1,53,25Zm0-4a1,1,0,1,0,1,1A1.0006,1.0006,0,0,0,53,21Z"></path></g></svg>